<svg xmlns="http://www.w3.org/2000/svg" width="34" height="34" viewBox="0 0 34 34" fill="none">
  <path d="M8.26367 27.4375H20.1919C21.9894 27.4375 23.7323 26.4571 24.6038 24.8776C25.5297 23.298 25.5297 21.3372 24.6038 19.7577C23.6778 18.1781 21.9894 17.1977 20.1919 17.1977H17.2507H14.255C12.4032 17.2522 10.6602 16.2718 9.73428 14.6923C8.80834 13.1127 8.80834 11.0974 9.73428 9.51789C10.6602 7.93835 12.4032 6.95794 14.255 7.01241H25.2574" stroke="#000" stroke-width="2.72335" stroke-linecap="round" stroke-linejoin="round" />
  <path d="M22.5356 2.00114H14.3111C10.6618 1.94667 7.28489 3.85301 5.43301 7.0121C3.58113 10.1712 3.6356 14.0383 5.43301 17.1974C7.23042 20.3565 10.6618 22.2629 14.3111 22.2084H18.6685" stroke="#000" stroke-width="2.72335" stroke-linecap="round" stroke-linejoin="round" />
  <path d="M11.9102 32.3935H20.1347C25.7448 32.3935 30.2111 27.8727 30.2111 22.3171C30.2111 16.7615 25.6903 12.2407 20.1347 12.2407H15.7773" stroke="#000" stroke-width="2.72335" stroke-linecap="round" stroke-linejoin="round" />
  <path d="M28.1446 9.95368C29.7389 9.95368 31.0313 8.66123 31.0313 7.06693C31.0313 5.47262 29.7389 4.18018 28.1446 4.18018C26.5503 4.18018 25.2578 5.47262 25.2578 7.06693C25.2578 8.66123 26.5503 9.95368 28.1446 9.95368Z" stroke="#000" stroke-width="2.72335" stroke-linecap="round" stroke-linejoin="round" />
  <path d="M4.88675 30.4332C6.48106 30.4332 7.7735 29.1407 7.7735 27.5464C7.7735 25.9521 6.48106 24.6597 4.88675 24.6597C3.29244 24.6597 2 25.9521 2 27.5464C2 29.1407 3.29244 30.4332 4.88675 30.4332Z" stroke="#000" stroke-width="2.72335" stroke-linecap="round" stroke-linejoin="round" />
</svg>
